<?xml version="1.0" encoding="UTF-8"?>
<svg id="Lag_2" data-name="Lag 2" xmlns="http://www.w3.org/2000/svg" viewBox="0 0 387.18 186.48">
  <defs>
    <style>
      .cls-1 {
        fill: #c7e6f7;
      }
    </style>
  </defs>
  <g id="Lag_1-2" data-name="Lag 1">
    <g>
      <path class="cls-1" d="M304.99,170.09c65.41,4.09,81.36.67,82.15-3.76.52-2.94-5.67-6.08-16.23-12.41-21.32-12.78-37.74-24.92-48.96-33.82-5.65,16.66-11.31,33.32-16.96,49.99Z"/>
      <path class="cls-1" d="M22.23,20.16C2.73,41.98,1.33,73.3.44,93.28c-.89,19.85-2.5,55.94,19.12,76.72,13.6,13.07,28.24,12.46,78.53,13.96,66.64,1.99,133.54-3.56,200,1.76,12.55,1,27.31,2.5,38-6.76,16.79-14.56,13.45-45.64,8-90-4.2-34.14-6.3-51.2-12-59.64C318.03,8.53,292.55,2.36,165.12.36,59.16-1.3,38.16,2.35,22.23,20.16Z"/>
    </g>
  </g>
</svg>