<?xml version="1.0" encoding="UTF-8"?>
<svg id="Lag_2" data-name="Lag 2" xmlns="http://www.w3.org/2000/svg" viewBox="0 0 395.24 203.31">
  <defs>
    <style>
      .cls-1 {
        fill: #fffbf4;
      }
    </style>
  </defs>
  <g id="Lag_1-2" data-name="Lag 1">
    <g>
      <path class="cls-1" d="M82.18,170.39C16.77,174.48.82,171.06.03,166.63c-.52-2.94,5.67-6.08,16.23-12.41,21.32-12.78,37.74-24.92,48.96-33.82,5.65,16.66,11.31,33.32,16.96,49.99Z"/>
      <path class="cls-1" d="M364.27,24.84c27.83,26.64,30.54,63.83,30.83,68.7.35,5.96,2.22,48.92-27.48,76.76-18.92,17.74-40.9,20.19-77.77,23.64-173.2,16.22-203.44,10.43-227.23-10.13-6.11-5.28-18.83-16.53-25.98-35.23-3.18-8.31-6.96-22.56,0-71.78,4.52-31.93,6.78-47.9,10.13-53.28C60.44,1.57,90.03-1.72,222.06.66c98.72,1.78,121.47,4.33,142.21,24.18Z"/>
    </g>
  </g>
</svg>